<svg width="512" height="512" viewBox="0 0 512 512" xmlns="http://www.w3.org/2000/svg"><path d="M48 48h128V16H16v160h32V48z"/><path d="M176 176V80H80v96h96zm-64-64h32v32h-32zm216-64h136v128h32V16H328v32z"/><path d="M432 176V80h-96v96h96zm-64-64h32v32h-32zM176 464H48V336H16v160h160v-32z"/><path d="M176 336H80v96h96v-96zm-32 64h-32v-32h32zm320 64H328v32h168V336h-32v128z"/><path d="M272 304h128v64h32v-96H272v32z"/><path d="M432 432v-32H240V272H80v32h128v128h224zM208 80h32v96h-32z"/><path d="M80 240h224V80h-32v128H80v32zm256-32h96v32h-96zm0 128h32v32h-32zm-64 0h32v32h-32z"/><path style="fill:red;stroke:red;stroke-width:.654799" d="M16.171633 95.809297V16.171633H95.809297 175.44696V32.038141 47.904648H111.6758 47.904648V111.6758v63.77116H32.038141 16.171633z"/><path style="fill:red;stroke:red;stroke-width:.654799" d="m16.171633 416.1907v-79.63766h15.866508 15.866507v63.77116 63.77115H111.6758h63.77116v15.86651 15.86651H95.809297 16.171633z"/><path style="fill:red;stroke:red;stroke-width:.654799" d="m328.00954 479.96186v-15.86651h68.0429 68.04291V400.3242 336.55304h15.86651 15.86651v79.63766 79.63767h-83.90942-83.90941z"/><path style="fill:red;stroke:red;stroke-width:.654799" d="M464.09535 111.6758V47.904648h-68.04291-68.0429V32.038141 16.171633h83.90941 83.90942v79.637664 79.637663h-15.86651-15.86651z"/></svg>