<svg version="1.0" xmlns="http://www.w3.org/2000/svg" width="384pt" height="384pt" viewBox="0 0 384 384"><g transform="translate(0.000000,384.000000) scale(0.100000,-0.100000)" fill="#000" stroke="none"><path d="M228 3766c-63-17-111-56-139-113-24-48-24-50-27-465l-3-418h60 61v4e2c0 339 2 406 15 430 31 59 35 60 475 60h4e2v60 60l-397-1c-287 0-411-4-445-13z"/><path d="M2770 3721v-61h4e2c440 0 444-1 475-60 13-24 15-91 15-430v-4e2h60 60v390c0 239-4 408-11 439-14 67-57 123-116 152-48 24-49 24-465 27l-418 3v-60z"/><path d="M420 3e3v-420h420 420v420 420H840 420V3e3zm720 0v-3e2H840 540v3e2 3e2h3e2 3e2V3e3z"/><path d="M660 3e3v-180h180 180v180 180H840 660V3e3z"/><path d="M1740 3360v-60h-60-60v-60-60h60 60v-60-60h-60-60v-60-60h-60-60v120 120h-60-60v-120-120h60 60v-60-60h60 60v-120-120h60 60v-60-60h-60-60v-60-60h-120-120v60 60h-120-120v-60-60h-60-60v60 60H9e2 780v-120-120H660 540v60 60h-60-60v-120-120h180 180v-60-60h-60-60v-120-120h-60-60v60 60h-60-60v-240-240h60 60v120 120h60 60v-60-60h180 180v-60-60h180 180v-120-120h60 60v60 60h60 60v60 60h120 120v-60-60h120 120v-120-120h-60-60v60 60h-180-180v-60-60h-120-120V9e2 780h60 60v60 60h60 60V780 660h60 60v-60-60h-60-60v-60-60h60 60v60 60h120 120v60 60h-60-60v60 60h-60-60v120 120h120 120v-60-60h120 120V780 660h60 60v-60-60h60 60v-60-60h60 60v60 60h-60-60v60 60h-60-60v60 60h60 60v60 60h60 60V780 660h180 180v60 60h120 120v-60-60h-60-60v-60-60h-180-180v-60-60h180 180v60 60h120 120v-60-60h60 60v240 240h-60-60v-60-60h-60-60v60 60h-60-60v120 120h60 60v-60-60h120 120v240 240h-60-60v60 60h60 60v60 60h-240-240v120 120h120 120v-60-60h60 60v60 60h60 60v120 120h-60-60v-120-120h-60-60v60 60h-120-120v-60-60h-60-60v-120-120h60 60v-60-60h-60-60v-60-60h-60-60v180 180h-60-60v-120-120h-60-60v180 180h60 60v60 60h-60-60v120 120h-60-60v-106c0-123 6-133 78-134h42v-60-60h-37c-32 0-41-6-60-35-21-32-23-46-23-180v-145h-50-50v-48c0-26-5-53-12-60-9-9 2-12 50-12h62v-60-60h-60-60v56c0 50-2 55-17 48-10-5-37-8-60-7h-43v-48-49h-120-120v60 59l102 3 103 3-72 38-73 38-107-56c-106-56-128-61-175-40-16 6-18 1-18-49v-56h-120-120v60 60h60 60v60 60h49 49l12 73c6 39 13 78 16 86 3 8-10 29-28 48-32 33-33 33-125 33h-93v60 60h35c34 0 35 1 35 38 0 20 3 47 6 60 6 20 3 22-35 22h-41v60 60h60 60v-46c0-43 2-46 23-41 12 3 66 11 120 18 97 12 97 12 97 41 0 18 5 28 15 28 8 0 28 27 45 60l30 60h-45-45v60 60h180 180v-60-60h-45-45l45-90c37-73 49-90 68-90 12 0 39-3 60-6l37-7v37 36h-60-60v60 60h60 60v60 60h120 120v180 180h-120-120v60 60h120 120v240 240h-120-120v-60-60h-60-60v60 60h-60-60v-120-120h-120-120v60 60h60 60v60 60h-60-60v-60zm6e2-240v-60h-60-60v-60-60h-60-60v-60-60h60 60v-60-60h60 60v-60-60h-60-60v-60-60h-60-60v60 60h-60-60v60 60h60 60v60 60h-120-120v-120-120h-60-60v120 120h-60-60v60 60h60 60v60 60h120 120v-60-60h60 60v60 60h60 60v60 60h60 60v-60zm-960-840v-60h-120-120v-60-60h60 60v-60-60h-60-60v60 60H960 780v60 60h180 180v60 60h120 120v-60zm-480-360v-60h180 180v-60-60h-180-180v-60-60H780 660v60 60h120 120v60 60h-60-60v60 60h60 60v-60zm6e2-240v-60h-60-60v-60-60h-180-180v60 60h180 180v60 60h60 60v-60zm960-120v-60h-60-60v60 60h60 60v-60zm360-360v-180h-180-180v180 180h180 180v-180zm480 60v-120h-60-60v60 60h-60-60v60 60h120 120v-120zm-960-180v-60h-60-60v60 60h60 60v-60z"/><path d="M21e2 2640v-60h60 60v60 60h-60-60v-60z"/><path d="M2580 12e2v-60h60 60v60 60h-60-60v-60z"/><path d="M2580 3e3v-420h420 420v420 420H3e3h-420V3e3zm720 0v-3e2H3e3h-3e2v3e2 3e2h3e2 3e2V3e3z"/><path d="M2820 3e3v-180h180 180v180 180H3e3h-180V3e3z"/><path d="M1380 2640v-60h60 60v60 60h-60-60v-60z"/><path d="M2940 24e2v-60h-60-60v-60-60h120 120v60 60h60 60v60 60h-120-120v-60z"/><path d="M2580 2280v-60h60 60v60 60h-60-60v-60z"/><path d="M420 840V420h420 420v420 420H840 420V840zm720 0V540H840 540v3e2 3e2h3e2 3e2V840z"/><path d="M660 840V660h180 180v180 180H840 660V840z"/><path d="M3660 675c0-445 0-449-60-480-24-13-91-15-430-15h-4e2v-61-60l418 3c416 3 417 3 465 27 59 29 102 85 116 152 7 31 11 202 11 444v395h-60-60V675z"/><path d="M62 653c3-417 3-418 27-466 29-59 85-102 152-116 31-7 2e2-11 439-11h390v60 60H670c-440 0-444 1-475 60-13 24-15 91-15 430v4e2h-61-60l3-417z"/><path d="M21e2 480v-60h60 60v60 60h-60-60v-60z"/></g></svg>