<?xml version="1.0" standalone="no"?>
<!DOCTYPE svg PUBLIC "-//W3C//DTD SVG 20010904//EN"
 "http://www.w3.org/TR/2001/REC-SVG-20010904/DTD/svg10.dtd">
<svg version="1.0" xmlns="http://www.w3.org/2000/svg"
 width="384.000000pt" height="384.000000pt" viewBox="0 0 384.000000 384.000000"
 preserveAspectRatio="xMidYMid meet">
<metadata>
Created by potrace 1.11, written by Peter Selinger 2001-2013
</metadata>
<g transform="translate(0.000000,384.000000) scale(0.100000,-0.100000)"
fill="#000000" stroke="none">
<path d="M228 3766 c-63 -17 -111 -56 -139 -113 -24 -48 -24 -50 -27 -465 l-3
-418 60 0 61 0 0 400 c0 339 2 406 15 430 31 59 35 60 475 60 l400 0 0 60 0
60 -397 -1 c-287 0 -411 -4 -445 -13z"/>
<path d="M2770 3721 l0 -61 400 0 c440 0 444 -1 475 -60 13 -24 15 -91 15
-430 l0 -400 60 0 60 0 0 390 c0 239 -4 408 -11 439 -14 67 -57 123 -116 152
-48 24 -49 24 -465 27 l-418 3 0 -60z"/>
<path d="M420 3000 l0 -420 420 0 420 0 0 420 0 420 -420 0 -420 0 0 -420z
m720 0 l0 -300 -300 0 -300 0 0 300 0 300 300 0 300 0 0 -300z"/>
<path d="M660 3000 l0 -180 180 0 180 0 0 180 0 180 -180 0 -180 0 0 -180z"/>
<path d="M1740 3360 l0 -60 -60 0 -60 0 0 -60 0 -60 60 0 60 0 0 -60 0 -60
-60 0 -60 0 0 -60 0 -60 -60 0 -60 0 0 120 0 120 -60 0 -60 0 0 -120 0 -120
60 0 60 0 0 -60 0 -60 60 0 60 0 0 -120 0 -120 60 0 60 0 0 -60 0 -60 -60 0
-60 0 0 -60 0 -60 -120 0 -120 0 0 60 0 60 -120 0 -120 0 0 -60 0 -60 -60 0
-60 0 0 60 0 60 -120 0 -120 0 0 -120 0 -120 -120 0 -120 0 0 60 0 60 -60 0
-60 0 0 -120 0 -120 180 0 180 0 0 -60 0 -60 -60 0 -60 0 0 -120 0 -120 -60 0
-60 0 0 60 0 60 -60 0 -60 0 0 -240 0 -240 60 0 60 0 0 120 0 120 60 0 60 0 0
-60 0 -60 180 0 180 0 0 -60 0 -60 180 0 180 0 0 -120 0 -120 60 0 60 0 0 60
0 60 60 0 60 0 0 60 0 60 120 0 120 0 0 -60 0 -60 120 0 120 0 0 -120 0 -120
-60 0 -60 0 0 60 0 60 -180 0 -180 0 0 -60 0 -60 -120 0 -120 0 0 -120 0 -120
60 0 60 0 0 60 0 60 60 0 60 0 0 -120 0 -120 60 0 60 0 0 -60 0 -60 -60 0 -60
0 0 -60 0 -60 60 0 60 0 0 60 0 60 120 0 120 0 0 60 0 60 -60 0 -60 0 0 60 0
60 -60 0 -60 0 0 120 0 120 120 0 120 0 0 -60 0 -60 120 0 120 0 0 -120 0
-120 60 0 60 0 0 -60 0 -60 60 0 60 0 0 -60 0 -60 60 0 60 0 0 60 0 60 -60 0
-60 0 0 60 0 60 -60 0 -60 0 0 60 0 60 60 0 60 0 0 60 0 60 60 0 60 0 0 -120
0 -120 180 0 180 0 0 60 0 60 120 0 120 0 0 -60 0 -60 -60 0 -60 0 0 -60 0
-60 -180 0 -180 0 0 -60 0 -60 180 0 180 0 0 60 0 60 120 0 120 0 0 -60 0 -60
60 0 60 0 0 240 0 240 -60 0 -60 0 0 -60 0 -60 -60 0 -60 0 0 60 0 60 -60 0
-60 0 0 120 0 120 60 0 60 0 0 -60 0 -60 120 0 120 0 0 240 0 240 -60 0 -60 0
0 60 0 60 60 0 60 0 0 60 0 60 -240 0 -240 0 0 120 0 120 120 0 120 0 0 -60 0
-60 60 0 60 0 0 60 0 60 60 0 60 0 0 120 0 120 -60 0 -60 0 0 -120 0 -120 -60
0 -60 0 0 60 0 60 -120 0 -120 0 0 -60 0 -60 -60 0 -60 0 0 -120 0 -120 60 0
60 0 0 -60 0 -60 -60 0 -60 0 0 -60 0 -60 -60 0 -60 0 0 180 0 180 -60 0 -60
0 0 -120 0 -120 -60 0 -60 0 0 180 0 180 60 0 60 0 0 60 0 60 -60 0 -60 0 0
120 0 120 -60 0 -60 0 0 -106 c0 -123 6 -133 78 -134 l42 0 0 -60 0 -60 -37 0
c-32 0 -41 -6 -60 -35 -21 -32 -23 -46 -23 -180 l0 -145 -50 0 -50 0 0 -48 c0
-26 -5 -53 -12 -60 -9 -9 2 -12 50 -12 l62 0 0 -60 0 -60 -60 0 -60 0 0 56 c0
50 -2 55 -17 48 -10 -5 -37 -8 -60 -7 l-43 0 0 -48 0 -49 -120 0 -120 0 0 60
0 59 102 3 103 3 -72 38 -73 38 -107 -56 c-106 -56 -128 -61 -175 -40 -16 6
-18 1 -18 -49 l0 -56 -120 0 -120 0 0 60 0 60 60 0 60 0 0 60 0 60 49 0 49 0
12 73 c6 39 13 78 16 86 3 8 -10 29 -28 48 -32 33 -33 33 -125 33 l-93 0 0 60
0 60 35 0 c34 0 35 1 35 38 0 20 3 47 6 60 6 20 3 22 -35 22 l-41 0 0 60 0 60
60 0 60 0 0 -46 c0 -43 2 -46 23 -41 12 3 66 11 120 18 97 12 97 12 97 41 0
18 5 28 15 28 8 0 28 27 45 60 l30 60 -45 0 -45 0 0 60 0 60 180 0 180 0 0
-60 0 -60 -45 0 -45 0 45 -90 c37 -73 49 -90 68 -90 12 0 39 -3 60 -6 l37 -7
0 37 0 36 -60 0 -60 0 0 60 0 60 60 0 60 0 0 60 0 60 120 0 120 0 0 180 0 180
-120 0 -120 0 0 60 0 60 120 0 120 0 0 240 0 240 -120 0 -120 0 0 -60 0 -60
-60 0 -60 0 0 60 0 60 -60 0 -60 0 0 -120 0 -120 -120 0 -120 0 0 60 0 60 60
0 60 0 0 60 0 60 -60 0 -60 0 0 -60z m600 -240 l0 -60 -60 0 -60 0 0 -60 0
-60 -60 0 -60 0 0 -60 0 -60 60 0 60 0 0 -60 0 -60 60 0 60 0 0 -60 0 -60 -60
0 -60 0 0 -60 0 -60 -60 0 -60 0 0 60 0 60 -60 0 -60 0 0 60 0 60 60 0 60 0 0
60 0 60 -120 0 -120 0 0 -120 0 -120 -60 0 -60 0 0 120 0 120 -60 0 -60 0 0
60 0 60 60 0 60 0 0 60 0 60 120 0 120 0 0 -60 0 -60 60 0 60 0 0 60 0 60 60
0 60 0 0 60 0 60 60 0 60 0 0 -60z m-960 -840 l0 -60 -120 0 -120 0 0 -60 0
-60 60 0 60 0 0 -60 0 -60 -60 0 -60 0 0 60 0 60 -180 0 -180 0 0 60 0 60 180
0 180 0 0 60 0 60 120 0 120 0 0 -60z m-480 -360 l0 -60 180 0 180 0 0 -60 0
-60 -180 0 -180 0 0 -60 0 -60 -120 0 -120 0 0 60 0 60 120 0 120 0 0 60 0 60
-60 0 -60 0 0 60 0 60 60 0 60 0 0 -60z m600 -240 l0 -60 -60 0 -60 0 0 -60 0
-60 -180 0 -180 0 0 60 0 60 180 0 180 0 0 60 0 60 60 0 60 0 0 -60z m960
-120 l0 -60 -60 0 -60 0 0 60 0 60 60 0 60 0 0 -60z m360 -360 l0 -180 -180 0
-180 0 0 180 0 180 180 0 180 0 0 -180z m480 60 l0 -120 -60 0 -60 0 0 60 0
60 -60 0 -60 0 0 60 0 60 120 0 120 0 0 -120z m-960 -180 l0 -60 -60 0 -60 0
0 60 0 60 60 0 60 0 0 -60z"/>
<path d="M2100 2640 l0 -60 60 0 60 0 0 60 0 60 -60 0 -60 0 0 -60z"/>
<path d="M2580 1200 l0 -60 60 0 60 0 0 60 0 60 -60 0 -60 0 0 -60z"/>
<path d="M2580 3000 l0 -420 420 0 420 0 0 420 0 420 -420 0 -420 0 0 -420z
m720 0 l0 -300 -300 0 -300 0 0 300 0 300 300 0 300 0 0 -300z"/>
<path d="M2820 3000 l0 -180 180 0 180 0 0 180 0 180 -180 0 -180 0 0 -180z"/>
<path d="M1380 2640 l0 -60 60 0 60 0 0 60 0 60 -60 0 -60 0 0 -60z"/>
<path d="M2940 2400 l0 -60 -60 0 -60 0 0 -60 0 -60 120 0 120 0 0 60 0 60 60
0 60 0 0 60 0 60 -120 0 -120 0 0 -60z"/>
<path d="M2580 2280 l0 -60 60 0 60 0 0 60 0 60 -60 0 -60 0 0 -60z"/>
<path d="M420 840 l0 -420 420 0 420 0 0 420 0 420 -420 0 -420 0 0 -420z
m720 0 l0 -300 -300 0 -300 0 0 300 0 300 300 0 300 0 0 -300z"/>
<path d="M660 840 l0 -180 180 0 180 0 0 180 0 180 -180 0 -180 0 0 -180z"/>
<path d="M3660 675 c0 -445 0 -449 -60 -480 -24 -13 -91 -15 -430 -15 l-400 0
0 -61 0 -60 418 3 c416 3 417 3 465 27 59 29 102 85 116 152 7 31 11 202 11
444 l0 395 -60 0 -60 0 0 -405z"/>
<path d="M62 653 c3 -417 3 -418 27 -466 29 -59 85 -102 152 -116 31 -7 200
-11 439 -11 l390 0 0 60 0 60 -400 0 c-440 0 -444 1 -475 60 -13 24 -15 91
-15 430 l0 400 -61 0 -60 0 3 -417z"/>
<path d="M2100 480 l0 -60 60 0 60 0 0 60 0 60 -60 0 -60 0 0 -60z"/>
</g>
</svg>
